<?xml version="1.0" encoding="UTF-8" standalone="no"?>
<!-- Created with Inkscape (http://www.inkscape.org/) -->

<svg
   xmlns:dc="http://purl.org/dc/elements/1.1/"
   xmlns:cc="http://creativecommons.org/ns#"
   xmlns:rdf="http://www.w3.org/1999/02/22-rdf-syntax-ns#"
   xmlns:svg="http://www.w3.org/2000/svg"
   xmlns="http://www.w3.org/2000/svg"
   xmlns:sodipodi="http://sodipodi.sourceforge.net/DTD/sodipodi-0.dtd"
   xmlns:inkscape="http://www.inkscape.org/namespaces/inkscape"
   width="16"
   height="16"
   viewBox="0 0 4.2333332 4.2333335"
   version="1.1"
   id="svg8"
   inkscape:version="0.92.4 (5da689c313, 2019-01-14)"
   sodipodi:docname="portal.svg">
  <defs
     id="defs2" />
  <sodipodi:namedview
     id="base"
     pagecolor="#ffffff"
     bordercolor="#666666"
     borderopacity="1.0"
     inkscape:pageopacity="0.0"
     inkscape:pageshadow="2"
     inkscape:zoom="22.4"
     inkscape:cx="5.2842068"
     inkscape:cy="7.4198632"
     inkscape:document-units="px"
     inkscape:current-layer="layer1"
     showgrid="false"
     units="px"
     inkscape:pagecheckerboard="true"
     inkscape:window-width="1366"
     inkscape:window-height="705"
     inkscape:window-x="-8"
     inkscape:window-y="-8"
     inkscape:window-maximized="1" />
  <metadata
     id="metadata5">
    <rdf:RDF>
      <cc:Work
         rdf:about="">
        <dc:format>image/svg+xml</dc:format>
        <dc:type
           rdf:resource="http://purl.org/dc/dcmitype/StillImage" />
        <dc:title></dc:title>
      </cc:Work>
    </rdf:RDF>
  </metadata>
  <g
     inkscape:label="Layer 1"
     inkscape:groupmode="layer"
     id="layer1"
     transform="translate(0,-292.76665)">
    <path
       style="opacity:1;fill:#fc9c9c;fill-opacity:1;fill-rule:nonzero;stroke:#fc9c9c;stroke-width:0.26458333;stroke-linecap:round;stroke-linejoin:round;stroke-miterlimit:4;stroke-dasharray:none;stroke-dashoffset:0;stroke-opacity:1;paint-order:fill markers stroke"
       d="m 2.1176473,292.93359 c -0.9787983,-2.6e-4 -1.77242055,0.87248 -1.77250221,1.94922 8.166e-5,1.07674 0.79370391,1.94948 1.77250221,1.94922 0.9776764,-10e-4 1.7695489,-0.87372 1.7696295,-1.94922 -8.06e-5,-1.0755 -0.7919531,-1.94774 -1.7696295,-1.94922 z m 0,0.3259 c 0.8440703,-7e-5 1.3719865,0.60932 1.3719553,1.62332 3.58e-5,1.014 -0.5278818,1.64702 -1.3719553,1.64695 -0.8440735,7e-5 -1.38936455,-0.63295 -1.38932881,-1.64695 -3.103e-5,-1.014 0.54525861,-1.62339 1.38932881,-1.62332 z"
       id="path812"
       inkscape:connector-curvature="0"
       sodipodi:nodetypes="cccccccccc" />
    <path
       style="fill:#fc9c9c;fill-opacity:0.99607999;stroke-width:0.77678931"
       d="M 6.6074219,6.6347656 C 5.7493007,6.6341529 5.0532004,7.3293787 5.0527344,8.1875 5.0534516,8.7420511 5.3497078,9.2541726 5.8300781,9.53125 v 4.253906 c 0.4734044,0.210643 0.9942376,0.346424 1.5546875,0.404297 V 10.0625 l 3.3867184,3.386719 c 0.432768,-0.281183 0.812808,-0.636986 1.136719,-1.058594 L 8.4824219,8.9648438 h 4.5507811 c 0.02521,0.044288 0.05259,0.087309 0.08203,0.1289062 0.03924,-0.3540819 0.07423,-0.7117594 0.07422,-1.0957031 8e-6,-0.2628723 -0.03227,-0.4998138 -0.05078,-0.7480469 -0.03909,0.051109 -0.07497,0.1045978 -0.107422,0.1601562 H 7.9492188 C 7.6719956,6.9311405 7.1608726,6.6357754 6.6074219,6.6347656 Z"
       transform="matrix(0.26458333,0,0,0.26458333,0,292.76665)"
       id="path818"
       inkscape:connector-curvature="0"
       sodipodi:nodetypes="cccccccccccccccc" />
  </g>
</svg>
